<?xml version="1.0" encoding="UTF-8" standalone="no"?>
<!DOCTYPE svg PUBLIC "-//W3C//DTD SVG 1.1//EN"
 "http://www.w3.org/Graphics/SVG/1.1/DTD/svg11.dtd">
<!-- Generated by graphviz version 2.43.0 (0)
 -->
<!-- Title: %3 Pages: 1 -->
<svg width="712pt" height="278pt"
 viewBox="0.00 0.00 712.15 277.74" xmlns="http://www.w3.org/2000/svg" xmlns:xlink="http://www.w3.org/1999/xlink">
<g id="graph0" class="graph" transform="scale(1 1) rotate(0) translate(4 273.74)">
<title>%3</title>
<polygon fill="white" stroke="transparent" points="-4,4 -4,-273.74 708.15,-273.74 708.15,4 -4,4"/>
<!-- mongo -->
<g id="node1" class="node">
<title>mongo</title>
<ellipse fill="#eeeeee" stroke="#ff9999" stroke-dasharray="5,2" cx="598.79" cy="-170.87" rx="69.09" ry="26.74"/>
<text text-anchor="middle" x="598.79" y="-174.67" font-family="Times,serif" font-size="14.00" fill="#777777">mongo</text>
<text text-anchor="middle" x="598.79" y="-159.67" font-family="Times,serif" font-size="14.00" fill="#777777">(undefined)</text>
</g>
<!-- foo -->
<g id="node2" class="node">
<title>foo</title>
<ellipse fill="white" stroke="black" cx="105.36" cy="-98.87" rx="105.22" ry="26.74"/>
<text text-anchor="middle" x="105.36" y="-102.67" font-family="Times,serif" font-size="14.00">Foo Application</text>
<text text-anchor="middle" x="105.36" y="-87.67" font-family="Times,serif" font-size="14.00">availability: 99.0%</text>
</g>
<!-- bar -->
<g id="node3" class="node">
<title>bar</title>
<ellipse fill="white" stroke="black" cx="352.08" cy="-170.87" rx="105.22" ry="26.74"/>
<text text-anchor="middle" x="352.08" y="-174.67" font-family="Times,serif" font-size="14.00">Bar API</text>
<text text-anchor="middle" x="352.08" y="-159.67" font-family="Times,serif" font-size="14.00">availability: 99.9%</text>
</g>
<!-- foo&#45;&gt;bar -->
<g id="edge1" class="edge">
<title>foo&#45;&gt;bar</title>
<path fill="none" stroke="green" d="M185.17,-122.06C216.47,-131.27 252.13,-141.76 282.35,-150.65"/>
<polygon fill="green" stroke="green" points="185.76,-118.58 175.18,-119.12 183.78,-125.3 185.76,-118.58"/>
</g>
<!-- baz -->
<g id="node4" class="node">
<title>baz</title>
<ellipse fill="white" stroke="black" cx="352.08" cy="-98.87" rx="105.22" ry="26.74"/>
<text text-anchor="middle" x="352.08" y="-102.67" font-family="Times,serif" font-size="14.00">Baz API</text>
<text text-anchor="middle" x="352.08" y="-87.67" font-family="Times,serif" font-size="14.00">availability: 99.9%</text>
</g>
<!-- foo&#45;&gt;baz -->
<g id="edge2" class="edge">
<title>foo&#45;&gt;baz</title>
<path fill="none" stroke="green" d="M220.87,-98.87C229.43,-98.87 238.05,-98.87 246.54,-98.87"/>
<polygon fill="green" stroke="green" points="220.85,-95.37 210.85,-98.87 220.85,-102.37 220.85,-95.37"/>
</g>
<!-- google&#45;maps -->
<g id="node5" class="node">
<title>google&#45;maps</title>
<ellipse fill="#dddddd" stroke="#dddddd" cx="352.08" cy="-26.87" rx="98.08" ry="26.74"/>
<text text-anchor="middle" x="352.08" y="-30.67" font-family="Times,serif" font-size="14.00" fill="#777777">Google Maps API</text>
<text text-anchor="middle" x="352.08" y="-15.67" font-family="Times,serif" font-size="14.00" fill="#777777">(Google)</text>
</g>
<!-- foo&#45;&gt;google&#45;maps -->
<g id="edge3" class="edge">
<title>foo&#45;&gt;google&#45;maps</title>
<path fill="none" stroke="darkgrey" d="M184.97,-75.74C217.04,-66.3 253.74,-55.51 284.46,-46.47"/>
<polygon fill="darkgrey" stroke="darkgrey" points="183.78,-72.44 175.18,-78.62 185.76,-79.16 183.78,-72.44"/>
</g>
<!-- bar&#45;&gt;mongo -->
<g id="edge4" class="edge">
<title>bar&#45;&gt;mongo</title>
<path fill="none" stroke="darkgrey" d="M467.58,-170.87C488.71,-170.87 510.16,-170.87 529.39,-170.87"/>
<polygon fill="darkgrey" stroke="darkgrey" points="467.57,-167.37 457.57,-170.87 467.57,-174.37 467.57,-167.37"/>
</g>
<!-- okta -->
<g id="node6" class="node">
<title>okta</title>
<ellipse fill="#dddddd" stroke="#dddddd" cx="598.79" cy="-242.87" rx="83.38" ry="26.74"/>
<text text-anchor="middle" x="598.79" y="-246.67" font-family="Times,serif" font-size="14.00" fill="#777777">Okta Core API</text>
<text text-anchor="middle" x="598.79" y="-231.67" font-family="Times,serif" font-size="14.00" fill="#777777">(Okta)</text>
</g>
<!-- bar&#45;&gt;okta -->
<g id="edge5" class="edge">
<title>bar&#45;&gt;okta</title>
<path fill="none" stroke="darkgrey" d="M431.79,-194.03C465.74,-204.02 504.85,-215.52 536.58,-224.86"/>
<polygon fill="darkgrey" stroke="darkgrey" points="432.48,-190.58 421.9,-191.12 430.5,-197.3 432.48,-190.58"/>
</g>
<!-- baz&#45;&gt;mongo -->
<g id="edge7" class="edge">
<title>baz&#45;&gt;mongo</title>
<path fill="none" stroke="darkgrey" d="M431.95,-122.08C468.21,-132.74 510.32,-145.13 543.03,-154.76"/>
<polygon fill="darkgrey" stroke="darkgrey" points="432.48,-118.58 421.9,-119.12 430.5,-125.3 432.48,-118.58"/>
</g>
<!-- baz&#45;&gt;okta -->
<g id="edge8" class="edge">
<title>baz&#45;&gt;okta</title>
<path fill="none" stroke="darkgrey" d="M438.69,-121.95C445.42,-125.64 451.79,-129.92 457.44,-134.87 484.34,-158.45 466.53,-183.29 493.44,-206.87 503.74,-215.9 516.43,-222.7 529.37,-227.8"/>
<polygon fill="darkgrey" stroke="darkgrey" points="439.83,-118.6 429.33,-117.26 436.7,-124.86 439.83,-118.6"/>
</g>
<!-- quux -->
<g id="node7" class="node">
<title>quux</title>
<ellipse fill="white" stroke="black" cx="598.79" cy="-98.87" rx="105.22" ry="26.74"/>
<text text-anchor="middle" x="598.79" y="-102.67" font-family="Times,serif" font-size="14.00">Quux API</text>
<text text-anchor="middle" x="598.79" y="-87.67" font-family="Times,serif" font-size="14.00">availability: 99.0%</text>
</g>
<!-- baz&#45;&gt;quux -->
<g id="edge6" class="edge">
<title>baz&#45;&gt;quux</title>
<path fill="none" stroke="red" d="M467.59,-98.87C476.15,-98.87 484.76,-98.87 493.26,-98.87"/>
<polygon fill="red" stroke="red" points="467.57,-95.37 457.57,-98.87 467.57,-102.37 467.57,-95.37"/>
</g>
</g>
</svg>
