<?xml version="1.0" encoding="UTF-8" standalone="no"?>
<!DOCTYPE svg PUBLIC "-//W3C//DTD SVG 1.1//EN"
 "http://www.w3.org/Graphics/SVG/1.1/DTD/svg11.dtd">
<!-- Generated by graphviz version 2.43.0 (0)
 -->
<!-- Title: %3 Pages: 1 -->
<svg width="593pt" height="206pt"
 viewBox="0.00 0.00 593.36 205.74" xmlns="http://www.w3.org/2000/svg" xmlns:xlink="http://www.w3.org/1999/xlink">
<g id="graph0" class="graph" transform="scale(1 1) rotate(0) translate(4 201.74)">
<title>%3</title>
<polygon fill="white" stroke="transparent" points="-4,4 -4,-201.74 589.36,-201.74 589.36,4 -4,4"/>
<!-- mongo -->
<g id="node1" class="node">
<title>mongo</title>
<ellipse fill="#eeeeee" stroke="#ff9999" stroke-dasharray="5,2" cx="499.8" cy="-26.87" rx="56.64" ry="26.74"/>
<text text-anchor="start" x="480.3" y="-30.67" font-family="Times,serif" font-size="14.00" fill="#777777">mongo</text>
<text text-anchor="start" x="467.8" y="-15.67" font-family="Times,serif" font-size="14.00" fill="#777777">(undefined)</text>
</g>
<!-- baz -->
<g id="node3" class="node">
<title>baz</title>
<ellipse fill="white" stroke="black" cx="292.68" cy="-170.87" rx="85.62" ry="26.74"/>
<text text-anchor="start" x="269.68" y="-174.67" font-family="Times,serif" font-size="14.00">Baz API</text>
<text text-anchor="start" x="240.18" y="-159.67" font-family="Times,serif" font-size="14.00">availability: 99.9%</text>
</g>
<!-- mongo&#45;&gt;baz -->
<g id="edge6" class="edge">
<title>mongo&#45;&gt;baz</title>
<path fill="none" stroke="darkgrey" d="M450.56,-40.6C437.65,-45.99 424.47,-53.25 414.24,-62.87 388.18,-87.38 404.3,-110.36 378.24,-134.87 373.51,-139.32 368.15,-143.26 362.48,-146.75"/>
<polygon fill="darkgrey" stroke="darkgrey" points="360.36,-143.92 353.35,-151.86 363.78,-150.03 360.36,-143.92"/>
</g>
<!-- bar -->
<g id="node4" class="node">
<title>bar</title>
<ellipse fill="white" stroke="black" cx="292.68" cy="-98.87" rx="85.62" ry="26.74"/>
<text text-anchor="start" x="270.18" y="-102.67" font-family="Times,serif" font-size="14.00">Bar API</text>
<text text-anchor="start" x="240.18" y="-87.67" font-family="Times,serif" font-size="14.00">availability: 99.9%</text>
</g>
<!-- mongo&#45;&gt;bar -->
<g id="edge4" class="edge">
<title>mongo&#45;&gt;bar</title>
<path fill="none" stroke="darkgrey" d="M453.79,-42.67C426.33,-52.31 390.74,-64.8 360.09,-75.56"/>
<polygon fill="darkgrey" stroke="darkgrey" points="358.61,-72.37 350.33,-78.99 360.92,-78.98 358.61,-72.37"/>
</g>
<!-- foo -->
<g id="node2" class="node">
<title>foo</title>
<ellipse fill="white" stroke="black" cx="85.56" cy="-98.87" rx="85.62" ry="26.74"/>
<text text-anchor="start" x="41.56" y="-102.67" font-family="Times,serif" font-size="14.00">Foo Application</text>
<text text-anchor="start" x="33.06" y="-87.67" font-family="Times,serif" font-size="14.00">availability: 99.0%</text>
</g>
<!-- baz&#45;&gt;foo -->
<g id="edge1" class="edge">
<title>baz&#45;&gt;foo</title>
<path fill="none" stroke="green" d="M234.81,-150.91C209.37,-141.98 179.2,-131.39 152.74,-122.1"/>
<polygon fill="green" stroke="green" points="153.77,-118.75 143.18,-118.74 151.46,-125.36 153.77,-118.75"/>
</g>
<!-- bar&#45;&gt;foo -->
<g id="edge2" class="edge">
<title>bar&#45;&gt;foo</title>
<path fill="none" stroke="green" d="M207.07,-98.87C198.58,-98.87 189.92,-98.87 181.34,-98.87"/>
<polygon fill="green" stroke="green" points="181.31,-95.37 171.31,-98.87 181.31,-102.37 181.31,-95.37"/>
</g>
<!-- google&#45;maps -->
<g id="node5" class="node">
<title>google&#45;maps</title>
<ellipse fill="#dddddd" stroke="#dddddd" cx="292.68" cy="-26.87" rx="82.05" ry="26.74"/>
<text text-anchor="start" x="242.68" y="-30.67" font-family="Times,serif" font-size="14.00" fill="#777777">Google Maps API</text>
<text text-anchor="start" x="268.18" y="-15.67" font-family="Times,serif" font-size="14.00" fill="#777777">(Google)</text>
</g>
<!-- google&#45;maps&#45;&gt;foo -->
<g id="edge3" class="edge">
<title>google&#45;maps&#45;&gt;foo</title>
<path fill="none" stroke="darkgrey" d="M236.17,-46.35C210.49,-55.37 179.79,-66.14 152.9,-75.58"/>
<polygon fill="darkgrey" stroke="darkgrey" points="151.46,-72.38 143.18,-78.99 153.78,-78.98 151.46,-72.38"/>
</g>
<!-- okta -->
<g id="node6" class="node">
<title>okta</title>
<ellipse fill="#dddddd" stroke="#dddddd" cx="499.8" cy="-98.87" rx="69.09" ry="26.74"/>
<text text-anchor="start" x="458.8" y="-102.67" font-family="Times,serif" font-size="14.00" fill="#777777">Okta Core API</text>
<text text-anchor="start" x="481.8" y="-87.67" font-family="Times,serif" font-size="14.00" fill="#777777">(Okta)</text>
</g>
<!-- okta&#45;&gt;baz -->
<g id="edge7" class="edge">
<title>okta&#45;&gt;baz</title>
<path fill="none" stroke="darkgrey" d="M447.83,-116.76C421.29,-126.08 388.51,-137.58 360.02,-147.59"/>
<polygon fill="darkgrey" stroke="darkgrey" points="358.81,-144.3 350.53,-150.91 361.13,-150.91 358.81,-144.3"/>
</g>
<!-- okta&#45;&gt;bar -->
<g id="edge5" class="edge">
<title>okta&#45;&gt;bar</title>
<path fill="none" stroke="darkgrey" d="M430.5,-98.87C417.09,-98.87 402.79,-98.87 388.69,-98.87"/>
<polygon fill="darkgrey" stroke="darkgrey" points="388.47,-95.37 378.47,-98.87 388.47,-102.37 388.47,-95.37"/>
</g>
<!-- quux -->
<g id="node7" class="node">
<title>quux</title>
<ellipse fill="white" stroke="black" cx="499.8" cy="-170.87" rx="85.62" ry="26.74"/>
<text text-anchor="start" x="472.3" y="-174.67" font-family="Times,serif" font-size="14.00">Quux API</text>
<text text-anchor="start" x="447.3" y="-159.67" font-family="Times,serif" font-size="14.00">availability: 99.0%</text>
</g>
<!-- quux&#45;&gt;baz -->
<g id="edge8" class="edge">
<title>quux&#45;&gt;baz</title>
<path fill="none" stroke="red" d="M414.19,-170.87C405.7,-170.87 397.04,-170.87 388.46,-170.87"/>
<polygon fill="red" stroke="red" points="388.43,-167.37 378.43,-170.87 388.43,-174.37 388.43,-167.37"/>
</g>
</g>
</svg>
