<?xml version="1.0" encoding="UTF-8" standalone="no"?>
<!DOCTYPE svg PUBLIC "-//W3C//DTD SVG 1.1//EN"
 "http://www.w3.org/Graphics/SVG/1.1/DTD/svg11.dtd">
<!-- Generated by graphviz version 2.43.0 (0)
 -->
<!-- Title: %3 Pages: 1 -->
<svg width="712pt" height="206pt"
 viewBox="0.00 0.00 712.15 205.74" xmlns="http://www.w3.org/2000/svg" xmlns:xlink="http://www.w3.org/1999/xlink">
<g id="graph0" class="graph" transform="scale(1 1) rotate(0) translate(4 201.74)">
<title>%3</title>
<polygon fill="white" stroke="transparent" points="-4,4 -4,-201.74 708.15,-201.74 708.15,4 -4,4"/>
<!-- mongo -->
<g id="node1" class="node">
<title>mongo</title>
<ellipse fill="#eeeeee" stroke="#ff9999" stroke-dasharray="5,2" cx="598.79" cy="-26.87" rx="69.09" ry="26.74"/>
<text text-anchor="start" x="574.29" y="-30.67" font-family="Times,serif" font-size="14.00" fill="#777777">mongo</text>
<text text-anchor="start" x="557.79" y="-15.67" font-family="Times,serif" font-size="14.00" fill="#777777">(undefined)</text>
</g>
<!-- baz -->
<g id="node3" class="node">
<title>baz</title>
<ellipse fill="white" stroke="black" cx="352.08" cy="-170.87" rx="105.22" ry="26.74"/>
<text text-anchor="start" x="324.08" y="-174.67" font-family="Times,serif" font-size="14.00">Baz API</text>
<text text-anchor="start" x="285.58" y="-159.67" font-family="Times,serif" font-size="14.00">availability: 99.9%</text>
</g>
<!-- mongo&#45;&gt;baz -->
<g id="edge6" class="edge">
<title>mongo&#45;&gt;baz</title>
<path fill="none" stroke="darkgrey" d="M536.98,-39.13C521.49,-44.47 505.76,-52.07 493.44,-62.87 466.53,-86.45 484.34,-111.29 457.44,-134.87 451.79,-139.82 445.42,-144.1 438.69,-147.8"/>
<polygon fill="darkgrey" stroke="darkgrey" points="436.7,-144.88 429.33,-152.48 439.83,-151.14 436.7,-144.88"/>
</g>
<!-- bar -->
<g id="node4" class="node">
<title>bar</title>
<ellipse fill="white" stroke="black" cx="352.08" cy="-98.87" rx="105.22" ry="26.74"/>
<text text-anchor="start" x="324.58" y="-102.67" font-family="Times,serif" font-size="14.00">Bar API</text>
<text text-anchor="start" x="285.58" y="-87.67" font-family="Times,serif" font-size="14.00">availability: 99.9%</text>
</g>
<!-- mongo&#45;&gt;bar -->
<g id="edge4" class="edge">
<title>mongo&#45;&gt;bar</title>
<path fill="none" stroke="darkgrey" d="M543.18,-42.94C510.33,-52.6 467.98,-65.06 431.59,-75.77"/>
<polygon fill="darkgrey" stroke="darkgrey" points="430.59,-72.42 421.99,-78.6 432.57,-79.13 430.59,-72.42"/>
</g>
<!-- foo -->
<g id="node2" class="node">
<title>foo</title>
<ellipse fill="white" stroke="black" cx="105.36" cy="-98.87" rx="105.22" ry="26.74"/>
<text text-anchor="start" x="49.86" y="-102.67" font-family="Times,serif" font-size="14.00">Foo Application</text>
<text text-anchor="start" x="38.86" y="-87.67" font-family="Times,serif" font-size="14.00">availability: 99.0%</text>
</g>
<!-- baz&#45;&gt;foo -->
<g id="edge1" class="edge">
<title>baz&#45;&gt;foo</title>
<path fill="none" stroke="green" d="M282.26,-150.62C252.03,-141.73 216.36,-131.23 185.08,-122.03"/>
<polygon fill="green" stroke="green" points="185.67,-118.56 175.08,-119.09 183.69,-125.27 185.67,-118.56"/>
</g>
<!-- bar&#45;&gt;foo -->
<g id="edge2" class="edge">
<title>bar&#45;&gt;foo</title>
<path fill="none" stroke="green" d="M246.58,-98.87C238.09,-98.87 229.47,-98.87 220.91,-98.87"/>
<polygon fill="green" stroke="green" points="220.89,-95.37 210.89,-98.87 220.89,-102.37 220.89,-95.37"/>
</g>
<!-- google&#45;maps -->
<g id="node5" class="node">
<title>google&#45;maps</title>
<ellipse fill="#dddddd" stroke="#dddddd" cx="352.08" cy="-26.87" rx="98.08" ry="26.74"/>
<text text-anchor="start" x="290.58" y="-30.67" font-family="Times,serif" font-size="14.00" fill="#777777">Google Maps API</text>
<text text-anchor="start" x="321.58" y="-15.67" font-family="Times,serif" font-size="14.00" fill="#777777">(Google)</text>
</g>
<!-- google&#45;maps&#45;&gt;foo -->
<g id="edge3" class="edge">
<title>google&#45;maps&#45;&gt;foo</title>
<path fill="none" stroke="darkgrey" d="M284.53,-46.45C253.75,-55.51 216.96,-66.33 184.83,-75.78"/>
<polygon fill="darkgrey" stroke="darkgrey" points="183.63,-72.49 175.02,-78.67 185.61,-79.2 183.63,-72.49"/>
</g>
<!-- okta -->
<g id="node6" class="node">
<title>okta</title>
<ellipse fill="#dddddd" stroke="#dddddd" cx="598.79" cy="-98.87" rx="83.38" ry="26.74"/>
<text text-anchor="start" x="547.79" y="-102.67" font-family="Times,serif" font-size="14.00" fill="#777777">Okta Core API</text>
<text text-anchor="start" x="576.29" y="-87.67" font-family="Times,serif" font-size="14.00" fill="#777777">(Okta)</text>
</g>
<!-- okta&#45;&gt;baz -->
<g id="edge7" class="edge">
<title>okta&#45;&gt;baz</title>
<path fill="none" stroke="darkgrey" d="M536.67,-116.85C504.98,-126.18 465.89,-137.68 431.94,-147.67"/>
<polygon fill="darkgrey" stroke="darkgrey" points="430.66,-144.4 422.05,-150.58 432.63,-151.11 430.66,-144.4"/>
</g>
<!-- okta&#45;&gt;bar -->
<g id="edge5" class="edge">
<title>okta&#45;&gt;bar</title>
<path fill="none" stroke="darkgrey" d="M515.29,-98.87C500.15,-98.87 484.09,-98.87 468.21,-98.87"/>
<polygon fill="darkgrey" stroke="darkgrey" points="467.8,-95.37 457.8,-98.87 467.8,-102.37 467.8,-95.37"/>
</g>
<!-- quux -->
<g id="node7" class="node">
<title>quux</title>
<ellipse fill="white" stroke="black" cx="598.79" cy="-170.87" rx="105.22" ry="26.74"/>
<text text-anchor="start" x="565.29" y="-174.67" font-family="Times,serif" font-size="14.00">Quux API</text>
<text text-anchor="start" x="532.29" y="-159.67" font-family="Times,serif" font-size="14.00">availability: 99.0%</text>
</g>
<!-- quux&#45;&gt;baz -->
<g id="edge8" class="edge">
<title>quux&#45;&gt;baz</title>
<path fill="none" stroke="red" d="M493.3,-170.87C484.81,-170.87 476.19,-170.87 467.63,-170.87"/>
<polygon fill="red" stroke="red" points="467.61,-167.37 457.61,-170.87 467.61,-174.37 467.61,-167.37"/>
</g>
</g>
</svg>
